#define grin2_width 15
#define grin2_height 15
static unsigned char grin2_bits[] = {
 0xE0, 0x03, 0x18, 0x0C, 0x04, 0x10, 0x32, 0x26, 0x4A, 0x29, 0x01, 0x40,
 0xFD, 0x5F, 0x25, 0x72, 0x25, 0x52, 0x25, 0x52, 0x2A, 0x3A, 0x32, 0x26,
 0xE4, 0x1B, 0x58, 0x0C, 0xE0, 0x03 };
